<svg version="1.0" viewBox="0 0 281.25 285" preserveAspectRatio="xMidYMid" id="svg1" xmlns="http://www.w3.org/2000/svg"><defs id="defs1"><clipPath id="clip-path"><polygon class="cls-1" points="199.56,188.4 194.7,147.66 223.83,147.66 218.97,188.4" id="polygon1"/></clipPath><clipPath id="clip-path-2"><rect class="cls-1" x="189.7" y="142.66" width="39.13" height="50.74" id="rect1"/></clipPath><clipPath id="clip-path-3"><path class="cls-1" d="M150.85 83.34c-4.93 5.07-14.79 15.49-21.54 15.49 0 0 0-.13-.05-.37v.37c-6.76 0-16.61-10.42-21.54-15.49-3.75-3.85-1.94-8.82-.65-13.3a44 44 0 0 0 1.74-9.65c.35-6.23-.31-12.33.46-18.58 1.57-12.82 17.74-12.35 20-12.22 2.27-.13 18.44-.6 20 12.22 1.2 9.78-.73 19.68 2.42 29.19 1.41 4.17 2.67 8.73-.84 12.34z" id="path1"/></clipPath><linearGradient x1="0" y1="0" x2="1" y2="0" gradientUnits="userSpaceOnUse" gradientTransform="matrix(-225.67371 -77.1035 98.2168 -177.16147 420.79 88.64)" spreadMethod="pad" id="linearGradient188"><stop style="stop-opacity:1;stop-color:#1f1f1f" offset="0" id="stop187"/><stop style="stop-opacity:1;stop-color:#0a0a0a" offset="1" id="stop188"/></linearGradient><linearGradient x1="0" y1="0" x2="1" y2="0" gradientUnits="userSpaceOnUse" gradientTransform="rotate(-156.48 -87.76 -84.22) scale(140.69791)" spreadMethod="pad" id="linearGradient186"><stop style="stop-opacity:1;stop-color:#1f1f1f" offset="0" id="stop185"/><stop style="stop-opacity:1;stop-color:#0a0a0a" offset="1" id="stop186"/></linearGradient></defs><g id="g2" transform="translate(-57.36 -13.17) scale(.65048)"><g id="g100" transform="rotate(38.29 286.43 -22.83) scale(.78956)"><path d="M503.09 179v-.85l-.01-1.08-.02-.49c-3.5.58-7.93 1.2-13.04 1.77l-6.3.6v-6.3l12.8.7c2.46.1 4.45.3 6.48.47v-.2c0-.3-.02-.39-.03-.51 0-.13 0-.28-.05-.5l-.27-.96-.07-.3h-.06c-5-.3-11.5-.6-14.5-.6-4.8 0-5.3-.2-5.3-2.1 0-2.1.3-2.2 8.3-1.5 3.47.3 7.8.85 11.36 1.35 0-.14 0-.27.05-.54.05-.32.16-.79.26-1.3l.03-.15-3.7-.26c-14.2-1-16.9-1.7-16.3-4.1.3-1 .5-4.5.5-7.6 0-5.1-.3-6-3.5-9.3-4-4.2-7.9-6.5-11-6.5-1.9 0-2.5.5-6.9 6-1.9 2.5-2 2.5-4.9.7-3.7-2.1-11-2.2-14-.1-1.2.8-2.9 2.8-3.7 4.4-1.7 3.3-2 12.2-.5 15 .7 1.4.5 3.1-.9 6.3-4.3 10-3.7 17.9 1.9 23.2 2.8 2.7 3.2 2.8 10 2.1l7.1-.6 1.4 3.2c2.6 6.4 9.3 10.4 15.3 9.3 1.9-.4 5.3-2.4 7.8-4.7 5-4.6 5.4-7 2.9-15.4-.8-2.7-1.5-5.2-1.5-5.5 0-.8 11.2-2.8 19.8-3.6zm-33.18-37.21c1.91.21 4.11 1.46 6.61 3.76 3.8 3.6 4.2 4.3 4.2 8.8 0 6.3-.9 9.4-2.6 9.4-.8 0-1.4-1.5-1.6-4.2-.2-3.3-.8-4.4-2.2-4.6-1.7-.4-1.8 0-1.3 3.3.3 2 .1 4.7-.5 6.1-1.4 3.1-.4 4.1 2.6 2.4 3-1.5 5.9-.6 5.4 1.7-.3 1.4-1.6 1.7-9.7 1.6l-9.3-.1-2.5-4.1c-3.9-6.5-5.8-5-2.8 2.2 1.9 4.7 1.9 9.7-.1 12.5-1.8 2.6-1.3 3.8 1.1 2.9 1.6-.7 3-3.4 3.9-8l.6-2.7h9c8 0 9 .2 10 2.1a5 5 0 0 1 .7 3.4c-.8 1.8-6.8 2.5-8.5.9-3.1-3.2-4.1-1.1-1.7 3.6 1.5 3 1.1 8-.6 8-.5 0-.9.7-.9 1.5 0 4.3 4.5-.8 5.6-6.3.8-4.1 4.4-4.6 4.4-.7 0 1.4 1 3.9 2.2 5.6l2.3 3-2 3.7c-1.2 2.2-3.7 4.6-6.3 6.1-3.9 2.1-4.8 2.2-8.1 1.2-3.8-1.1-5.6-3.8-7.6-11-.6-2.1-1.1-2.3-4.4-1.7-9.2 1.7-11.3 1.8-13.5.6-5.4-2.8-6.3-13.2-1.9-21.7 2.4-4.9 2.5-5.4 1-7.1-2.6-2.9-3.1-7.5-1.3-11.4 2.9-6 10-7.6 16.4-3.6l3.5 2.1 1.6-2.1c.9-1.1 2.4-3.3 3.4-4.7 1.35-1.85 2.98-2.67 4.89-2.46z" id="path99" style="fill:#dc6861;fill-opacity:.501961;stroke:none;stroke-width:0;stroke-dasharray:none;stroke-opacity:1"/><path d="M469.56 141.94c-1.91-.21-3.54.61-4.89 2.46-1 1.4-2.5 3.6-3.4 4.7l-1.6 2.1-3.5-2.1c-6.4-4-13.5-2.4-16.4 3.6-1.8 3.9-1.3 8.5 1.3 11.4 1.5 1.7 1.4 2.2-1 7.1-4.4 8.5-3.5 18.9 1.9 21.7 2.2 1.2 4.3 1.1 13.5-.6 3.3-.6 3.8-.4 4.4 1.7 2 7.2 3.8 9.9 7.6 11 3.3 1 4.2.9 8.1-1.2 2.6-1.5 5.1-3.9 6.3-6.1l2-3.7-2.3-3c-1.2-1.7-2.2-4.2-2.2-5.6 0-3.9-3.6-3.4-4.4.7-1.1 5.5-5.6 10.6-5.6 6.3 0-.8.4-1.5.9-1.5 1.7 0 2.1-5 .6-8-2.4-4.7-1.4-6.8 1.7-3.6 1.7 1.6 7.7.9 8.5-.9a5 5 0 0 0-.7-3.4c-1-1.9-2-2.1-10-2.1h-9l-.6 2.7c-.9 4.6-2.3 7.3-3.9 8-2.4.9-2.9-.3-1.1-2.9 2-2.8 2-7.8.1-12.5-3-7.2-1.1-8.7 2.8-2.2l2.5 4.1 9.3.1c8.1.1 9.4-.2 9.7-1.6.5-2.3-2.4-3.2-5.4-1.7-3 1.7-4 .7-2.6-2.4.6-1.4.8-4.1.5-6.1-.5-3.3-.4-3.7 1.3-3.3 1.4.2 2 1.3 2.2 4.6.2 2.7.8 4.2 1.6 4.2 1.7 0 2.6-3.1 2.6-9.4 0-4.5-.4-5.2-4.2-8.8-2.5-2.3-4.7-3.55-6.6-3.76z" style="fill:#f0bfbc;fill-opacity:.501961;stroke:none;stroke-width:.75px" id="path100"/></g><g id="g99" transform="rotate(134.51 371.84 138.74) scale(.8134)"><path d="M503.09 179v-.85l-.01-1.08-.02-.49c-3.5.58-7.93 1.2-13.04 1.77l-6.3.6v-6.3l12.8.7c2.46.1 4.45.3 6.48.47v-.2c0-.3-.02-.39-.03-.51 0-.13 0-.28-.05-.5l-.27-.96-.07-.3h-.06c-5-.3-11.5-.6-14.5-.6-4.8 0-5.3-.2-5.3-2.1 0-2.1.3-2.2 8.3-1.5 3.47.3 7.8.85 11.36 1.35 0-.14 0-.27.05-.54.05-.32.16-.79.26-1.3l.03-.15-3.7-.26c-14.2-1-16.9-1.7-16.3-4.1.3-1 .5-4.5.5-7.6 0-5.1-.3-6-3.5-9.3-4-4.2-7.9-6.5-11-6.5-1.9 0-2.5.5-6.9 6-1.9 2.5-2 2.5-4.9.7-3.7-2.1-11-2.2-14-.1-1.2.8-2.9 2.8-3.7 4.4-1.7 3.3-2 12.2-.5 15 .7 1.4.5 3.1-.9 6.3-4.3 10-3.7 17.9 1.9 23.2 2.8 2.7 3.2 2.8 10 2.1l7.1-.6 1.4 3.2c2.6 6.4 9.3 10.4 15.3 9.3 1.9-.4 5.3-2.4 7.8-4.7 5-4.6 5.4-7 2.9-15.4-.8-2.7-1.5-5.2-1.5-5.5 0-.8 11.2-2.8 19.8-3.6zm-33.18-37.21c1.91.21 4.11 1.46 6.61 3.76 3.8 3.6 4.2 4.3 4.2 8.8 0 6.3-.9 9.4-2.6 9.4-.8 0-1.4-1.5-1.6-4.2-.2-3.3-.8-4.4-2.2-4.6-1.7-.4-1.8 0-1.3 3.3.3 2 .1 4.7-.5 6.1-1.4 3.1-.4 4.1 2.6 2.4 3-1.5 5.9-.6 5.4 1.7-.3 1.4-1.6 1.7-9.7 1.6l-9.3-.1-2.5-4.1c-3.9-6.5-5.8-5-2.8 2.2 1.9 4.7 1.9 9.7-.1 12.5-1.8 2.6-1.3 3.8 1.1 2.9 1.6-.7 3-3.4 3.9-8l.6-2.7h9c8 0 9 .2 10 2.1a5 5 0 0 1 .7 3.4c-.8 1.8-6.8 2.5-8.5.9-3.1-3.2-4.1-1.1-1.7 3.6 1.5 3 1.1 8-.6 8-.5 0-.9.7-.9 1.5 0 4.3 4.5-.8 5.6-6.3.8-4.1 4.4-4.6 4.4-.7 0 1.4 1 3.9 2.2 5.6l2.3 3-2 3.7c-1.2 2.2-3.7 4.6-6.3 6.1-3.9 2.1-4.8 2.2-8.1 1.2-3.8-1.1-5.6-3.8-7.6-11-.6-2.1-1.1-2.3-4.4-1.7-9.2 1.7-11.3 1.8-13.5.6-5.4-2.8-6.3-13.2-1.9-21.7 2.4-4.9 2.5-5.4 1-7.1-2.6-2.9-3.1-7.5-1.3-11.4 2.9-6 10-7.6 16.4-3.6l3.5 2.1 1.6-2.1c.9-1.1 2.4-3.3 3.4-4.7 1.35-1.85 2.98-2.67 4.89-2.46z" id="path14-2" style="fill:#dc6861;fill-opacity:.501961;stroke:none;stroke-width:0;stroke-dasharray:none;stroke-opacity:1"/><path d="M469.56 141.94c-1.91-.21-3.54.61-4.89 2.46-1 1.4-2.5 3.6-3.4 4.7l-1.6 2.1-3.5-2.1c-6.4-4-13.5-2.4-16.4 3.6-1.8 3.9-1.3 8.5 1.3 11.4 1.5 1.7 1.4 2.2-1 7.1-4.4 8.5-3.5 18.9 1.9 21.7 2.2 1.2 4.3 1.1 13.5-.6 3.3-.6 3.8-.4 4.4 1.7 2 7.2 3.8 9.9 7.6 11 3.3 1 4.2.9 8.1-1.2 2.6-1.5 5.1-3.9 6.3-6.1l2-3.7-2.3-3c-1.2-1.7-2.2-4.2-2.2-5.6 0-3.9-3.6-3.4-4.4.7-1.1 5.5-5.6 10.6-5.6 6.3 0-.8.4-1.5.9-1.5 1.7 0 2.1-5 .6-8-2.4-4.7-1.4-6.8 1.7-3.6 1.7 1.6 7.7.9 8.5-.9a5 5 0 0 0-.7-3.4c-1-1.9-2-2.1-10-2.1h-9l-.6 2.7c-.9 4.6-2.3 7.3-3.9 8-2.4.9-2.9-.3-1.1-2.9 2-2.8 2-7.8.1-12.5-3-7.2-1.1-8.7 2.8-2.2l2.5 4.1 9.3.1c8.1.1 9.4-.2 9.7-1.6.5-2.3-2.4-3.2-5.4-1.7-3 1.7-4 .7-2.6-2.4.6-1.4.8-4.1.5-6.1-.5-3.3-.4-3.7 1.3-3.3 1.4.2 2 1.3 2.2 4.6.2 2.7.8 4.2 1.6 4.2 1.7 0 2.6-3.1 2.6-9.4 0-4.5-.4-5.2-4.2-8.8-2.5-2.3-4.7-3.55-6.6-3.76z" style="fill:#f0bfbc;fill-opacity:.501961;stroke:none;stroke-width:.75px" id="path22-8"/></g><path class="cls-12" d="M355 296.47a6.05 4.75 0 0 1-1.32.36l-.25.05c-8.86 1.7-46 3.32-53.06 3.34h-.2a790.4 790.4 0 0 1-44.3-2.3l-1.44-.07c-1.95-.18-3.69-.37-5.1-.56-.8-.1-1.51-.22-2.09-.32l-.37-.09c-1.3-.27-1.93-.54-1.5-.82a1.53 1.2 0 0 1 .36-.15 12.07 9.48 0 0 0 2.72-1.2 12.02 9.43 0 0 0 1.66-1.16.5.4 0 0 0 .12-.1 13.2 10.36 0 0 0 1.05-.97.5.4 0 0 0 .12-.14 26.63 20.9 0 0 0 3.94-7.38c.74-2.28 1.3-4.62 2.37-6.82a20.85 16.37 0 0 1 2.82-4.36 13.66 10.72 0 0 1 1.2-1.13l.74-.59a27.28 21.41 0 0 1 6.06-3.33c.8-.33 1.62-.64 2.44-.92a53.79 42.23 0 0 1 13.3-2.84 155.35 155.35 0 0 1 15.89-1.06h.21a122.01 95.78 0 0 1 15.9 1.03 49.43 38.8 0 0 1 15.74 3.79c.53.22 1.06.46 1.58.7a21.41 16.8 0 0 1 2.27 1.2 23.62 18.54 0 0 1 2.18 1.41 19.4 15.22 0 0 1 5.07 6.7c.76 1.82 1.3 3.73 1.9 5.59a28.02 22 0 0 0 4.08 7.94 12.99 10.2 0 0 0 1.17 1.1 13.45 10.56 0 0 0 1.8 1.27 14.22 11.16 0 0 0 1.32.66 11.16 8.76 0 0 0 1.38.52l.23.09c.45.2.42.39 0 .56z" id="path9" style="isolation:isolate;fill:#65439a;fill-opacity:1;stroke-width:1.16243"/><path class="cls-13" d="M353.6 296.82a138.69 108.87 0 0 1-17.47 1.74c3.04-12.36-.88-23.44-4.11-29.86a28.02 22 0 0 1 5.97 3.3c8.4 6.17 4.9 17.24 14.02 22.59a12.07 9.48 0 0 0 2.72 1.2c1.01.38.5.71-1.13 1.03z" id="path10" style="isolation:isolate;fill:#35428b;stroke-width:1.16243"/><path class="cls-13" d="M246.98 296.73a138.69 108.87 0 0 0 17.49 1.74c-3.05-12.36.88-23.44 4.1-29.87a28.02 22 0 0 0-5.97 3.3c-8.4 6.18-4.89 17.25-14.02 22.6a12.07 9.48 0 0 1-2.73 1.3c-1.06.27-.5.6 1.13.93z" id="path11" style="isolation:isolate;fill:#35428b;stroke-width:1.16243"/><ellipse class="cls-13" cx="267.05" cy="287.26" id="circle11" style="isolation:isolate;fill:#35428b;stroke-width:1.16243" rx="1.85" ry="1.45"/><ellipse class="cls-13" cx="267.94" cy="284.48" id="circle12" style="isolation:isolate;fill:#35428b;stroke-width:1.16243" rx=".83" ry=".65"/><ellipse class="cls-13" cx="270.62" cy="287.02" id="circle13" style="isolation:isolate;fill:#35428b;stroke-width:1.16243" rx=".73" ry=".58"/><ellipse class="cls-13" cx="271.46" cy="284.43" id="circle14" style="isolation:isolate;fill:#35428b;stroke-width:1.16243" rx="1.33" ry="1.04"/><ellipse class="cls-13" cx="270.12" cy="289.92" id="circle15" style="isolation:isolate;fill:#35428b;stroke-width:1.16243" rx="1.3" ry="1.02"/><path class="cls-15" d="M245.3 295.97a12.23 9.6 0 0 0 3.32-1.58 17.84 14 0 0 1-1.9 2.63c-1.84-.35-2.5-.7-1.42-1.05z" id="path18" style="isolation:isolate;fill:#d5e4ec;stroke-width:1.16243"/><path class="cls-15" d="M353.46 296.96a19.44 15.26 0 0 1-1.6-2.2 12.07 9.48 0 0 0 2.73 1.2c1 .34.5.67-1.13 1z" id="path19" style="isolation:isolate;fill:#d5e4ec;stroke-width:1.16243"/><path class="cls-16" d="M274 211.54c-15.88-12.76-11.08-31.32-11.08-31.32l9.6 3.92s-7.38-15.03 7.2-24.22c0 0-2.95 6.82 3.7 10.45 0 0 2.63-12.9 17.36-14.65 0 0-1.85 8.12 2.4 10.88 0 0 19.21-14.22 56.15-4.2 0 0-6.28 6.37-12 9.42a69.53 54.59 0 0 1 20.13 2.06c-15.05 2.54-30.91 8.72-38.18 19.8a42.76 33.57 0 0 0-4.86 11.22" id="path20-5" style="isolation:isolate;fill:#9b613f;stroke-width:1.16243"/><path class="cls-17" d="M308.63 263.57a2.83 2.22 0 0 1-.6 2.06 10.84 8.5 0 0 1-7.43 2.95h-.1a10.81 8.49 0 0 1-7.42-2.95 2.83 2.22 0 0 1-.6-2.06c1.75-5.48 1.1-16.92 1.1-16.92l6.93-1.83h.09l6.93 1.83s-.66 11.44 1.1 16.92z" id="path21" style="isolation:isolate;fill:#fdc6a2;stroke-width:1.16243"/><path class="cls-16" d="M335.31 180.08c0 1.62 4.99 19.14-9.05 27.55v-27.55s9.05-.14 9.05 0z" id="path22" style="isolation:isolate;fill:#9b613f;stroke-width:1.16243"/><ellipse class="cls-17" cx="273.66" cy="214" id="circle22" style="isolation:isolate;fill:#fdc6a2;stroke-width:1.16243" rx="9.88" ry="7.76"/><ellipse class="cls-17" cx="326.39" cy="213.78" id="circle23" style="isolation:isolate;fill:#fdc6a2;stroke-width:1.16243" rx="9.88" ry="7.76"/><ellipse class="cls-18" cx="273.22" cy="214.36" id="circle24" style="isolation:isolate;fill:#d98a77;stroke-width:1.16243" rx="4.57" ry="3.58"/><ellipse class="cls-18" cx="328.02" cy="213.75" id="circle25" style="isolation:isolate;fill:#d98a77;stroke-width:1.16243" rx="4.67" ry="3.67"/><path class="cls-17" d="M328.56 241.56c-6.47 5.22-19.4 15.95-28.26 15.95 0 0 0-.13-.07-.38v.38c-8.87 0-21.8-10.73-28.26-15.95-4.92-3.97-2.54-9.09-.85-13.7a57.73 45.32 0 0 0 2.28-9.94c.46-6.42-.4-12.7.6-19.14 2.06-13.2 23.28-12.72 26.24-12.58 2.98-.14 24.2-.62 26.24 12.58 1.58 10.08-.95 20.27 3.18 30.07 1.85 4.3 3.5 8.99-1.1 12.7z" id="path25" style="isolation:isolate;fill:#fdc6a2;stroke-width:1.16243"/><path class="cls-21" d="M325.97 196.61c-6.76-7.4-23.02-7.04-25.7-6.93-2.62-.11-18.94-.46-25.71 6.91 3.93-10.96 22.89-10.52 25.71-10.4 2.8-.12 21.78-.6 25.7 10.42z" id="path26" style="isolation:isolate;fill:#f8b894;stroke-width:1.16243"/><path class="cls-22" d="M327.14 202.98V204a36.9 28.96 0 0 0-.58-5.24c-2.06-13.2-23.27-12.72-26.24-12.58-2.99-.14-24.2-.62-26.24 12.58a74.15 58.21 0 0 0-.56 6.39 100.17 78.64 0 0 1 .48-10.65c.8-5.02 4.78-8.42 10.04-10.38a25.35 19.9 0 0 1 7.87-6.72 10.9 8.56 0 0 0-1.73 4.97 17.2 13.5 0 0 1 7.22-5.73l-.86 2.18a19.57 15.37 0 0 0-.9 3.1 63.58 49.91 0 0 1 9.75.04 33.42 26.23 0 0 1 10.24 1.84 16.86 13.23 0 0 1 10.84 10.73 60.35 47.38 0 0 1 .67 8.44z" id="path27" style="isolation:isolate;fill:#723f28;stroke-width:1.16243"/><path class="cls-23" d="M307.76 258.53c-6.82.5-11.44-.63-14.31-1.84v-.72a15.18 11.92 0 0 0 6.68 1.52v-.38c0 .25.06.38.06.38a13.92 10.93 0 0 0 5.66-1.13c.53-.2 1.07-.4 1.6-.63v.83c.2.67.31 1.33.31 1.97z" id="path28" style="isolation:isolate;fill:#f1ae8b;stroke-width:1.16243"/><path class="cls-24" d="M357.2 299.27v49.88H242.98v-49.88a8.92 7 0 0 1 5.05-6.31 8.51 6.68 0 0 1 3.4-.69 3.02 2.37 0 0 1 .48 0h96.3a5.64 4.43 0 0 1 .81 0 8.44 6.62 0 0 1 3.22.73 8.93 7.01 0 0 1 4.96 6.27z" id="path29" style="isolation:isolate;fill:#efdaf2;fill-opacity:1;stroke-width:1.16243"/><path class="cls-25" d="M357.2 328.58v23.28H242.96v-19.11c23.99 5.48 68.49 11.45 114.24-4.17z" id="path30" style="isolation:isolate;fill:#e7c4e9;fill-opacity:1;stroke-width:1.16243"/><ellipse class="cls-22" cx="308.27" cy="178.8" id="circle30" style="isolation:isolate;fill:#723f28;stroke-width:1.16243" rx="1.89" ry="1.48"/><ellipse class="cls-22" cx="313.26" cy="177.41" id="circle31" style="isolation:isolate;fill:#723f28;stroke-width:1.16243" rx="1.01" ry=".79"/><ellipse class="cls-22" cx="310.16" cy="176.26" id="circle32" style="isolation:isolate;fill:#723f28;stroke-width:1.16243" rx="1.01" ry=".79"/><path class="cls-26" d="M306.13 165.18s12.02-7.92 36.03-5.74" id="path32" style="isolation:isolate;fill:none;stroke:#eec2b8;stroke-width:1.16243;stroke-linecap:round;stroke-linejoin:round"/><line class="cls-26" x1="347.51" y1="160.1" x2="352.04" y2="160.9" id="line32" style="isolation:isolate;fill:none;stroke:#eec2b8;stroke-width:1.16243;stroke-linecap:round;stroke-linejoin:round"/><path class="cls-26" d="M284.34 167.83a21.45 16.84 0 0 1 10.22-10.44" id="path33" style="isolation:isolate;fill:none;stroke:#eec2b8;stroke-width:1.16243;stroke-linecap:round;stroke-linejoin:round"/><path class="cls-26" d="M270.67 174.5a25.43 19.96 0 0 1 4.3-10.54" id="path34" style="isolation:isolate;fill:none;stroke:#eec2b8;stroke-width:1.16243;stroke-linecap:round;stroke-linejoin:round"/><ellipse class="cls-27" cx="274.7" cy="166.85" id="circle34" style="isolation:isolate;fill:#eec2b8;stroke-width:1.16243" rx="1.81" ry="1.42"/><ellipse class="cls-27" cx="275.24" cy="169.67" id="circle35" style="isolation:isolate;fill:#eec2b8;stroke-width:1.16243" rx=".62" ry=".48"/><ellipse class="cls-27" cx="286.31" cy="167.06" id="circle36" style="isolation:isolate;fill:#eec2b8;stroke-width:1.16243" rx="1.23" ry=".97"/><ellipse class="cls-27" cx="336.43" cy="160.49" id="circle37" style="isolation:isolate;fill:#eec2b8;stroke-width:1.16243" rx="1.72" ry="1.35"/><ellipse class="cls-27" cx="308.72" cy="164.74" id="circle38" style="isolation:isolate;fill:#eec2b8;stroke-width:1.16243" rx=".98" ry=".77"/><ellipse class="cls-27" cx="349.48" cy="162.52" id="circle39" style="isolation:isolate;fill:#eec2b8;stroke-width:1.16243" rx="1.35" ry="1.06"/><ellipse class="cls-27" cx="307.92" cy="167.21" id="circle40" style="isolation:isolate;fill:#eec2b8;stroke-width:1.16243" rx=".8" ry=".63"/><ellipse class="cls-27" cx="313.22" cy="165.47" id="circle41" style="isolation:isolate;fill:#eec2b8;stroke-width:1.16243" rx="1.67" ry="1.31"/><path class="cls-28" d="M315.41 181.72a16.9 13.27 0 0 1 10.82 6.64" id="path41" style="opacity:.52;isolation:isolate;fill:none;stroke:#723f28;stroke-width:1.16243;stroke-linecap:round;stroke-linejoin:round"/><path class="cls-29" d="M331.52 236.53a10.15 7.97 0 0 1-2.94 5.05c-6.47 5.22-19.4 15.95-28.26 15.95 0 0 0-.13-.06-.38v.38c-8.87 0-21.8-10.73-28.26-15.95a9.94 7.8 0 0 1-2.9-5.05 44.6 35.02 0 0 0 62.42 0z" id="path42" style="opacity:.2;isolation:isolate;fill:#e89e85;stroke-width:1.16243"/><path class="cls-30" d="M290.06 242.8a2.8 2.2 0 0 1-2.71-2.73 14.43 11.33 0 0 1 28.14 0 2.8 2.2 0 0 1-2.72 2.74z" id="path43" style="isolation:isolate;fill:#fff;stroke-width:1.16243"/><path class="cls-31" d="M262.92 184.27s-.99 10.24 4.18 18.46" id="path44" style="opacity:.49;isolation:isolate;fill:none;stroke:#fff;stroke-width:1.16243;stroke-linecap:round;stroke-linejoin:round"/><ellipse class="cls-32" cx="266.53" cy="183.16" id="circle44" style="opacity:.5;isolation:isolate;fill:#fff;stroke-width:1.16243" rx=".89" ry=".7"/><ellipse class="cls-32" cx="264.13" cy="182.21" id="circle45" style="opacity:.5;isolation:isolate;fill:#fff;stroke-width:1.16243" rx=".55" ry=".43"/><ellipse class="cls-30" cx="265.37" cy="185.15" id="circle46" style="isolation:isolate;fill:#fff;stroke-width:1.16243" rx="1.25" ry=".98"/><path class="cls-33" d="M291.39 162.47a17.6 13.82 0 0 1 3.93-2.71" id="path46" style="isolation:isolate;fill:none;stroke:#fff;stroke-width:1.16243;stroke-linecap:round;stroke-linejoin:round"/><ellipse class="cls-30" cx="277.87" cy="198.24" id="circle47" style="isolation:isolate;fill:#fff;stroke-width:1.16243" rx="2.03" ry="1.6"/><ellipse class="cls-30" cx="275.85" cy="202.73" id="circle48" style="isolation:isolate;fill:#fff;stroke-width:1.16243" rx=".73" ry=".58"/><ellipse class="cls-30" cx="278.81" cy="201.86" id="circle49" style="isolation:isolate;fill:#fff;stroke-width:1.16243" rx=".64" ry=".5"/><path class="cls-16" d="M295.36 205.97a1.78 1.4 0 0 1-2.28.88h-.17c-6.56-2.06-10.22.47-10.38.58a1.73 1.36 0 0 1-1.22.38h-.09a1.8 1.41 0 0 1-1.7-1.49 1.76 1.38 0 0 1 .55-.95c.22-.16 5.44-3.9 14.2-1.14a1.78 1.4 0 0 1 1.1 1.74z" id="path49" style="isolation:isolate;fill:#9b613f;stroke-width:1.16243"/><path class="cls-16" d="M305.96 205.97a1.78 1.4 0 0 0 2.29.88h.17c6.56-2.06 10.22.47 10.37.58a1.73 1.36 0 0 0 1.22.38h.1a1.8 1.41 0 0 0 1.7-1.49 1.77 1.39 0 0 0-.56-.95c-.21-.16-5.43-3.9-14.18-1.14a1.78 1.4 0 0 0-1.1 1.74z" id="path50" style="isolation:isolate;fill:#9b613f;stroke-width:1.16243"/><rect class="cls-34" x="297.99" y="216.62" width="5.33" height="12.25" rx="2.66" id="rect50" style="isolation:isolate;fill:#e99f86;stroke-width:1.16243"/><ellipse class="cls-35" cx="288.3" cy="212.66" rx="3.56" ry="3.52" id="ellipse50" style="isolation:isolate;fill:#714630;stroke-width:1.16243"/><ellipse class="cls-35" cx="312.17" cy="212.66" rx="3.56" ry="3.52" id="ellipse51" style="isolation:isolate;fill:#714630;stroke-width:1.16243"/><path class="cls-36" d="M274.04 206.68a146.55 115.04 0 0 1-.27 14.17" id="path51" style="opacity:.77;isolation:isolate;fill:none;stroke:#fff;stroke-width:1.16243;stroke-linecap:round;stroke-linejoin:round"/><rect class="cls-37" x="131.03" y="349.31" width="348.14" height="7.2" rx="4.59" id="rect51" style="isolation:isolate;fill:#ffbf9c;fill-opacity:1;stroke-width:1.16243"/><path class="cls-38" d="M479.17 352.91a4.6 3.6 0 0 1-4.6 3.6H135.62a4.58 3.6 0 0 1-4.58-3.6 4.51 3.54 0 0 1 .72-1.92 4.57 3.58 0 0 0 3.86 1.66h338.97a4.57 3.58 0 0 0 3.24-1.03 5.08 3.99 0 0 0 .63-.61 4.51 3.54 0 0 1 .72 1.9z" id="path52" style="opacity:.45;isolation:isolate;fill:#e4997c;fill-opacity:1;stroke-width:1.16243"/><rect class="cls-39" x="310.42" y="354.11" width="42.14" height="2.12" rx="1.35" id="rect52" style="isolation:isolate;fill:#d28a72;fill-opacity:1;stroke-width:1.16243"/><rect class="cls-39" x="356.23" y="354.11" width="8.03" height="2.12" rx="1.35" id="rect53" style="isolation:isolate;fill:#d28a72;fill-opacity:1;stroke-width:1.16243"/><rect class="cls-30" x="145.72" y="349.28" width="42.14" height="2.12" rx="1.35" id="rect54" style="isolation:isolate;fill:#fff;stroke-width:1.16243"/><rect class="cls-30" x="191.52" y="349.28" width="8.03" height="2.12" rx="1.35" id="rect55" style="isolation:isolate;fill:#fff;stroke-width:1.16243"/><rect class="cls-39" x="420.39" y="354.11" width="42.14" height="2.12" rx="1.35" id="rect56" style="isolation:isolate;fill:#d28a72;fill-opacity:1;stroke-width:1.16243"/><rect class="cls-39" x="466.21" y="354.11" width="8.03" height="2.12" rx="1.35" id="rect57" style="isolation:isolate;fill:#d28a72;fill-opacity:1;stroke-width:1.16243"/><ellipse class="cls-25" cx="333.66" cy="332.11" id="circle57" style="isolation:isolate;fill:#e7c4e9;fill-opacity:1;stroke-width:1.16243" rx="2.03" ry="1.6"/><ellipse class="cls-25" cx="323.32" cy="332.11" id="circle58" style="isolation:isolate;fill:#e7c4e9;fill-opacity:1;stroke-width:1.16243" rx="3.38" ry="2.66"/><ellipse class="cls-25" cx="330.21" cy="328.15" id="circle59" style="isolation:isolate;fill:#e7c4e9;fill-opacity:1;stroke-width:1.16243" rx="1.05" ry=".82"/><ellipse class="cls-25" cx="330.03" cy="335.73" id="circle60" style="isolation:isolate;fill:#e7c4e9;fill-opacity:1;stroke-width:1.16243" rx="2.52" ry="1.98"/><ellipse class="cls-25" cx="338.4" cy="330.81" id="circle61" style="isolation:isolate;fill:#e7c4e9;fill-opacity:1;stroke-width:1.16243" rx="1.23" ry=".97"/><ellipse class="cls-25" cx="340.18" cy="325.83" id="circle62" style="isolation:isolate;fill:#e7c4e9;fill-opacity:1;stroke-width:1.16243" rx="2.9" ry="2.28"/><path class="cls-30" d="M276.27 294.31h-23.15v-2.06h25.78a2.62 2.06 0 0 1-2.63 2.06z" id="path62" style="isolation:isolate;fill:#fff;stroke-width:1.16243"/><path class="cls-30" d="M286.61 294.31h-2.1a2.62 2.06 0 0 1-2.62-2.06h7.35a2.62 2.06 0 0 1-2.63 2.06z" id="path63" style="isolation:isolate;fill:#fff;stroke-width:1.16243"/><ellipse class="cls-40" cx="240.01" cy="352.87" id="circle63" style="isolation:isolate;fill:#e4997c;fill-opacity:1;stroke-width:1.16243" rx="1.94" ry="1.52"/><ellipse class="cls-40" cx="245.6" cy="351.09" id="circle64" style="isolation:isolate;fill:#e48c7c;stroke-width:1.16243" rx=".7" ry=".55"/><ellipse class="cls-40" cx="231.56" cy="352.69" id="circle65" style="isolation:isolate;fill:#e48c7c;stroke-width:1.16243" rx="1.89" ry="1.48"/><ellipse class="cls-40" cx="235.12" cy="351.06" id="circle66" style="isolation:isolate;fill:#e48c7c;stroke-width:1.16243" rx=".55" ry=".43"/><ellipse class="cls-40" cx="236.42" cy="353.38" id="circle67" style="isolation:isolate;fill:#e48c7c;stroke-width:1.16243" rx=".83" ry=".65"/><ellipse class="cls-40" cx="244.91" cy="354.18" id="circle68" style="isolation:isolate;fill:#e4997c;fill-opacity:1;stroke-width:1.16243" rx="1.01" ry=".79"/><ellipse class="cls-40" cx="242.56" cy="350.87" id="circle69" style="isolation:isolate;fill:#e48c7c;stroke-width:1.16243" rx=".6" ry=".47"/><ellipse class="cls-30" cx="253.13" cy="294.66" id="circle70" style="isolation:isolate;fill:#fff;stroke-width:1.16243" rx="3.1" ry="2.43"/><ellipse class="cls-41" cx="255.07" cy="298.36" id="circle71" style="opacity:.72;isolation:isolate;fill:#fff;stroke-width:1.16243" rx=".94" ry=".74"/><ellipse class="cls-42" cx="253.31" cy="301.2" id="circle72" style="opacity:.42;isolation:isolate;fill:#fff;stroke-width:1.16243" rx="1.53" ry="1.21"/><ellipse class="cls-30" cx="248.33" cy="296.91" id="circle73" style="isolation:isolate;fill:#fff;stroke-width:1.16243" rx="1.09" ry=".85"/><ellipse class="cls-30" cx="251.46" cy="298.43" id="circle74" style="isolation:isolate;fill:#fff;stroke-width:1.16243" rx=".51" ry=".4"/><path class="cls-58" d="M287.54 266.5h-.15a1.53 1.2 0 0 1 .29.68 1.7 1.33 0 1 1-3.3-.35 64.2 50.4 0 0 0-11.92 2.56 1.31 1.03 0 0 1-.46.06 1.31 1.03 0 0 1-1.04-1.66 53.79 42.23 0 0 1 13.3-2.84c1.32-.15 2.51-.28 3.77-.4a1.31 1.03 0 0 1 .67.78 1.31 1.03 0 0 1-1.16 1.16z" id="path105" style="opacity:.2;isolation:isolate;fill:#fff4f9;stroke-width:1.16243"/><ellipse class="cls-59" cx="281.76" cy="271.62" id="circle106" style="opacity:.49;isolation:isolate;fill:#fff4f9;stroke-width:1.16243" rx=".87" ry=".68"/><ellipse class="cls-59" cx="286.07" cy="273.41" id="circle107" style="opacity:.49;isolation:isolate;fill:#fff4f9;stroke-width:1.16243" rx=".73" ry=".58"/><ellipse class="cls-59" cx="288.16" cy="271.28" id="circle108" style="opacity:.49;isolation:isolate;fill:#fff4f9;stroke-width:1.16243" rx="1.42" ry="1.11"/><ellipse class="cls-59" cx="284.71" cy="270.42" id="circle109" style="opacity:.49;isolation:isolate;fill:#fff4f9;stroke-width:1.16243" rx=".87" ry=".68"/><ellipse class="cls-59" cx="291.2" cy="268.79" id="circle110" style="opacity:.49;isolation:isolate;fill:#fff4f9;stroke-width:1.16243" rx="1.14" ry=".9"/><ellipse class="cls-30" cx="299.55" cy="322.17" id="circle117" style="isolation:isolate;fill:#fff;stroke-width:1.16243" rx="14.3" ry="11.23"/><g id="g72" transform="matrix(1.3586 -.86503 1.1019 1.06655 1019.54 481.2)"><path d="M-213.5-455.26c-.47-.03-.94-.05-1.41-.05-9.35 0-17.2 6.04-19.4 14.2-.23 1.08-.37 2.2-.4 3.35l2.3-.06c.17-8.93 7.9-16.15 17.38-16.15.59 0 1.17.03 1.74.08v-.1l.01-.05v-.05l.02-.06v-.2c0-.03-.03-.04-.04-.05-.01-.02-.02-.02-.03-.02h-.02l-.02-.02h-.36l-.08-.01-.08-.03c-.02-.01-.02-.03-.02-.04v-.07l.01-.04.01-.07v-.06c0-.01 0-.02.02-.02l.06-.03.08-.07.06-.06.02-.02.01-.01.03-.03.06-.03a.2.2 0 0 0 .05-.09v-.13z" style="fill:#1e5463;stroke-width:.0930249" id="path69"/><path d="M-213.85-455.93c-.4-.02-.78-.03-1.18-.03-9.51 0-17.46 6.39-19.28 14.84 2.2-8.15 10.05-14.19 19.4-14.19.47 0 .94.02 1.41.05l-.01-.06c0-.02 0-.04-.02-.06l-.07-.12-.1-.14-.07-.08-.03-.04a.13.13 0 0 0-.03-.02s-.02 0-.02-.03v-.12z" style="opacity:.5;fill:#347888;stroke-width:.0930249" id="path68"/><path id="path71" style="fill:#2b4651;stroke-width:.0930249" d="M-215.03-456.59c-11.21 0-20.34 8.59-20.34 19.15v.32l3.62-.1v-.3c0-8.72 7.5-15.82 16.72-15.82.36 0 .7.01 1.05.03l.03-.08.02-.05v-.04l.01-.02v-.03l.04-.03.05-.05h.01l.03-.02a.8.8 0 0 1 .08-.01c.04 0 .09 0 .14-.03a.7.7 0 0 0 .16-.08l.07-.06.02-.02.01-.03.01-.02c-.57-.06-1.14-.09-1.73-.09-9.48 0-17.2 7.22-17.38 16.15l-2.3.06c.03-1.15.17-2.26.4-3.35 1.82-8.46 9.77-14.85 19.28-14.85a21.07 21.07 0 0 1 1.18.02v-.05l.02-.05v-.03l.01-.03.03-.04.05-.1.06-.07.05-.07.03-.04.03-.05.03-.06c-.5-.04-.99-.06-1.5-.06zm0 .31h.37l.17.01h-.54zm-5.95.85zm-3.59 1.43zm-3.91 2.62zm-3.66 4.17zm-2.27 5.06zm-.51 4.7h.02-.02z"/><path class="cls-4" d="M-238.54-422.19a4.03 4.03 0 0 1 0-8.06" id="path4" style="fill:#215968;stroke-width:.0930249"/><path class="cls-3" d="M-238.18-422.1a4.48 4.48 0 0 1 0-8.96v.9a3.58 3.58 0 1 0 0 7.16z" id="path5-8" style="fill:#2b4651;stroke-width:.0930249"/><path class="cls-5" d="M-237.03-419.2c-1.45 0-2.63-.64-2.63-1.45v-11.86c0-.8 1.18-1.45 2.63-1.45" id="path6-5" style="fill:#347888;stroke-width:.0930249"/><path class="cls-3" d="M-236.91-418.74c-1.72 0-3.07-.84-3.07-1.9v-11.87c0-1.07 1.35-1.9 3.07-1.9v.9c-1.24 0-2.17.53-2.17 1v11.87c0 .47.93 1 2.17 1z" id="path7" style="fill:#2b4651;stroke-width:.0930249"/><rect class="cls-1" x="-237.46" y="-437.57" width="7.39" height="21.98" rx=".99" ry=".99" id="rect7" style="fill:#1e5463;fill-opacity:1;stroke-width:.0930249"/><path class="cls-6" d="M-235.65-416.31v-17.65a2.17 2.17 0 0 1 2.16-2.17h3.06a2.16 2.16 0 0 1 .24.02 2.17 2.17 0 0 0-2.04-1.46h-3.06a2.17 2.17 0 0 0-2.17 2.17v17.65a2.17 2.17 0 0 0 1.93 2.14 2.14 2.14 0 0 1-.12-.7z" id="path8" style="opacity:.6;fill:#347888;stroke-width:.0930249"/><path class="cls-3" d="M-232.23-415.14h-3.06a2.61 2.61 0 0 1-2.62-2.61v-17.65a2.61 2.61 0 0 1 2.62-2.62h3.06a2.61 2.61 0 0 1 2.61 2.62v17.65a2.61 2.61 0 0 1-2.61 2.61zm-3.06-21.98a1.71 1.71 0 0 0-1.72 1.72v17.65a1.71 1.71 0 0 0 1.72 1.71h3.06a1.71 1.71 0 0 0 1.71-1.71v-17.65a1.71 1.71 0 0 0-1.71-1.72z" id="path9-6" style="fill:#2b4651;stroke-width:.0930249"/></g><g id="g71" transform="matrix(1.24058 .96816 -1.23327 .9739 74.27 842.93)"><path d="M-200.6-455.01v.04l.04.2c.02.04.03.05.05.05l.06.02.09.04.07.01h.12l.09.01h.05l.09.01.07.01h.1l.04.04.03.05v.32a4.3 4.3 0 0 1-.05.17l-.05.12a.7.7 0 0 1-.14.18c-.05.04-.1.04-.16.04h-.2l-.07.02-.06.04-.03.01c8.3 1.14 14.74 7.85 14.9 15.98l2.28.06a17.5 17.5 0 0 0-1.66-7.13 20.02 20.02 0 0 0-15.64-10.3z" style="fill:#1e5463;stroke-width:.0930249" id="path57"/><path d="m-200.1-455.6-.07.07-.04.04-.04.03-.05.05a1.3 1.3 0 0 1-.1.07l-.04.03a.4.4 0 0 0-.06.04l-.04.05a.19.19 0 0 0-.05.1v.1a20.02 20.02 0 0 1 15.64 10.3 19.62 19.62 0 0 0-15.16-10.87z" style="opacity:.5;fill:#347888;stroke-width:.0930249" id="path55"/><path id="path59" style="fill:#2b4651;stroke-width:.0930249" d="M-199.73-456.17a.38.38 0 0 1-.03.17l-.05.07-.03.04-.01.01-.01.02-.05.05-.05.06a.98.98 0 0 1-.06.07l-.07.07-.02.02a19.6 19.6 0 0 1 15.18 10.9 17.5 17.5 0 0 1 1.64 7.1l-2.29-.06c-.15-8.13-6.58-14.84-14.89-15.97l-.03.02h-.02l-.01.04-.03.05c0 .02 0 .04.04.08l.14.13.01.01.06.06v.03c.02.01.03.04.04.07v.17c7.95 1.23 14.03 7.76 14.03 15.61v.31l3.62.1v-.33c0-9.52-7.42-17.44-17.1-18.9z"/><path class="cls-4" d="M-178.52-422.02a4.03 4.03 0 1 0 0-8.05" id="path11-1" style="fill:#215968;stroke-width:.0930249"/><path class="cls-3" d="M-178.88-421.93a4.48 4.48 0 0 0 0-8.95v.9a3.58 3.58 0 1 1 0 7.15z" id="path12" style="fill:#2b4651;stroke-width:.0930249"/><path class="cls-5" d="M-180.03-419.02c1.44 0 2.62-.65 2.62-1.45v-11.87c0-.8-1.18-1.45-2.62-1.45" id="path13" style="fill:#347888;stroke-width:.0930249"/><path class="cls-3" d="M-180.16-418.57c1.73 0 3.07-.84 3.07-1.9v-11.87c0-1.07-1.35-1.9-3.07-1.9v.9c1.25 0 2.18.53 2.18 1v11.87c0 .47-.94 1-2.18 1z" id="path14" style="fill:#2b4651;stroke-width:.0930249"/><rect class="cls-1" x="179.61" y="415.42" width="7.39" height="21.98" rx=".99" ry=".99" transform="scale(-1)" id="rect14" style="fill:#1e5463;stroke-width:.0930249"/><path class="cls-6" d="M-181.41-416.14v-17.65a2.17 2.17 0 0 0-2.16-2.16h-3.07a2.16 2.16 0 0 0-.23.01 2.17 2.17 0 0 1 2.04-1.45h3.06a2.17 2.17 0 0 1 2.16 2.16v17.65a2.17 2.17 0 0 1-1.92 2.15 2.14 2.14 0 0 0 .12-.7z" id="path15" style="opacity:.6;fill:#347888;stroke-width:.0930249"/><path class="cls-3" d="M-187.45-417.58v-17.65a2.61 2.61 0 0 1 2.62-2.61h3.06a2.61 2.61 0 0 1 2.61 2.6v17.66a2.61 2.61 0 0 1-2.61 2.61h-3.06a2.61 2.61 0 0 1-2.62-2.6zm2.62-19.36a1.71 1.71 0 0 0-1.72 1.7v17.66a1.71 1.71 0 0 0 1.72 1.71h3.06a1.71 1.71 0 0 0 1.71-1.7v-17.66a1.71 1.71 0 0 0-1.71-1.71z" id="path16" style="fill:#2b4651;stroke-width:.0930249"/><circle class="cls-3" cx="-184.19" cy="-418.2" r="1.4" id="circle16" style="fill:#2b4651;stroke-width:.0930249"/><circle class="cls-8" cx="-184.19" cy="-418.2" r=".68" id="circle17" style="fill:#70ea4e;stroke-width:.0930249"/></g><path id="path188" style="fill:#1e5463;fill-opacity:1;stroke:none;stroke-width:.729887" d="M117.2 36.07c-2.26 0-4.1 1.28-4.1 2.85v2.15c0 1.58 1.84 2.86 4.1 2.86h23.24c2.26 0 4.09 1.27 4.09 2.85 0 1.57-1.83 2.85-4.1 2.85h-11.1c-2.25 0-4.08 1.27-4.08 2.85v1.25c0 1.57 1.83 2.85 4.08 2.85h22.38c2.26 0 4.09 1.28 4.09 2.85v.4c0 1.58-1.83 2.86-4.09 2.86h-43.79c-2.25 0-4.08 1.28-4.08 2.85v.66c0 1.57 1.83 2.85 4.08 2.85h5.87c2.26 0 4.09 1.27 4.09 2.85v2.16c0 1.58-1.83 2.86-4.09 2.86H94.5c-2.26 0-4.09 1.27-4.09 2.85v1.54c0 1.58 1.83 2.86 4.08 2.86h34.69c2.25 0 4.08 1.27 4.08 2.85v2.79c0 1.57-1.83 2.85-4.08 2.85H114c-2.25 0-4.08 1.27-4.08 2.85v1.86c0 1.58 1.83 2.85 4.08 2.85h379.77c2.25 0 4.08-1.27 4.08-2.85v-2.15c0-1.57-1.83-2.85-4.09-2.85h-23.24c-2.26 0-4.09-1.27-4.09-2.85 0-1.57 1.83-2.85 4.09-2.85h11.1c2.26 0 4.09-1.28 4.09-2.85v-1.25c0-1.58-1.83-2.85-4.09-2.85h-22.38c-2.26 0-4.08-1.28-4.08-2.85v-.41c0-1.58 1.82-2.85 4.08-2.85h43.79c2.26 0 4.08-1.28 4.08-2.85v-.66c0-1.57-1.82-2.85-4.08-2.85h-5.87c-2.25 0-4.08-1.28-4.08-2.85v-2.17c0-1.57 1.83-2.85 4.08-2.85h19.31c2.26 0 4.09-1.27 4.09-2.85v-1.54c0-1.58-1.83-2.86-4.09-2.86H481.8c-2.26 0-4.09-1.27-4.09-2.85V46.5c0-1.57 1.83-2.85 4.09-2.85h15.17c2.26 0 4.09-1.28 4.09-2.85v-1.87c0-1.57-1.83-2.85-4.1-2.85H387.22Zm124.3 5.88h14.41v34h3.37v5.67h-3.37v2.83l.04.89c.06.56.18 1.24.38 2.02.2.75.52 1.46.97 2.12a3.54 3.54 0 0 0 1.98 1.35v.7h-20.23v-.7a3.53 3.53 0 0 0 1.94-1.35 8.1 8.1 0 0 0 1.35-4.14l.08-.89v-7.93l-3.03 5.1h-17.57l-7.68-5.67zm50.23 0a27 27 0 0 1 13.57 3.47 26.78 26.78 0 0 1 9.73 9.2 23.43 23.43 0 0 1 3.67 12.83c0 4.7-1.22 8.99-3.67 12.86a27.21 27.21 0 0 1-23.3 12.64 27.2 27.2 0 0 1-13.57-3.43 27.13 27.13 0 0 1-9.78-9.21 23.8 23.8 0 0 1-3.62-12.86c0-4.7 1.2-8.97 3.62-12.82a27.13 27.13 0 0 1 9.78-9.21 26.98 26.98 0 0 1 13.57-3.47zm58.96 0h14.41v34h3.37v5.67h-3.37v2.83l.04.89c.06.56.19 1.24.38 2.02.2.75.52 1.46.97 2.12a3.54 3.54 0 0 0 1.98 1.35v.7h-20.23v-.7a3.53 3.53 0 0 0 1.94-1.35 8.1 8.1 0 0 0 1.35-4.14l.09-.89v-7.93l-3.04 5.1h-17.57l-7.67-5.67zm-58.96 7.08c-2.47 0-4.73.84-6.78 2.52a17.66 17.66 0 0 0-4.9 6.66 23 23 0 0 0-1.8 9.24c0 3.4.6 6.5 1.8 9.28 1.24 2.79 2.87 5 4.9 6.66a10.56 10.56 0 0 0 13.56 0 17.08 17.08 0 0 0 4.9-6.66 23.1 23.1 0 0 0 1.8-9.28 23 23 0 0 0-1.8-9.24 16.99 16.99 0 0 0-4.9-6.66 10.37 10.37 0 0 0-6.78-2.52zm-49.3 6.98-16.06 19.94h16.05zm109.19 0-16.06 19.94h16.06zm-59.89 8.43 3.58 3.01-3.58 3.01-3.58-3z"/><rect class="cls-26" x="171.27" y="356.73" width="266.59" height="59.74" id="rect96" style="fill:#ffbf9c;fill-opacity:1;stroke-width:1.91008"/><rect class="cls-32" x="171.27" y="356.73" width="266.59" height="7.87" id="rect97" style="fill:#e4997c;fill-opacity:1;stroke-width:1.91008"/><rect class="cls-33" x="171.27" y="356.73" width="266.59" height="59.74" id="rect98" style="fill:none;stroke:#000;stroke-width:1.91008;stroke-linecap:round;stroke-linejoin:round"/><path id="line103" style="fill:none;stroke:#000;stroke-width:1.43256px;stroke-linecap:round;stroke-linejoin:round" class="cls-7" d="M186.12 360.06v56.41zm237.83 0v56.41z"/><path id="path104" style="fill:none;stroke:#000;stroke-width:.496622px;stroke-linecap:round;stroke-linejoin:round" class="cls-35" d="M178.25 365.7a18.43 14.47 0 0 0-2.71 4.94zm1.88 1.12a32.66 25.64 0 0 0-3.82 5.5zm16.56 29.26a32.01 25.13 0 0 0 3.79 5.51zm-2.24.66a18.82 14.77 0 0 0 3.83 4.48zm-15.46 8.34a31.39 24.64 0 0 0 1.14 6.21zm-2.5.02a18.78 14.74 0 0 0 1.61 5.23z"/></g></svg>
