<svg xmlns="http://www.w3.org/2000/svg" version="1.1">
    <symbol viewBox="0 0 24 24" id="right_arrow">
        <path fill-rule="evenodd" clip-rule="evenodd" d="M9.53151 6.41438C9.20806 6.67313 9.15562 7.1451 9.41438 7.46855L13.0396 12L9.41438 16.5315C9.15562 16.855 9.20806 17.3269 9.53151 17.5857C9.85495 17.8444 10.3269 17.792 10.5857 17.4685L14.5857 12.4685C14.8048 12.1946 14.8048 11.8054 14.5857 11.5315L10.5857 6.53151C10.3269 6.20806 9.85495 6.15562 9.53151 6.41438Z" style="fill: var(--icon-fill, currentColor);"/>
    </symbol>
    <symbol viewBox="0 0 448 512" id="facebook">
        <path d="M400 32H48A48 48 0 0 0 0 80v352a48 48 0 0 0 48 48h137.25V327.69h-63V256h63v-54.64c0-62.15 37-96.48 93.67-96.48 27.14 0 55.52 4.84 55.52 4.84v61h-31.27c-30.81 0-40.42 19.12-40.42 38.73V256h68.78l-11 71.69h-57.78V480H400a48 48 0 0 0 48-48V80a48 48 0 0 0-48-48z" style="fill: var(--icon-fill, currentColor);"/>
    </symbol>
    <symbol viewBox="0 0 512 512" id="twitter">
        <path d="M459.37 151.716c.325 4.548.325 9.097.325 13.645 0 138.72-105.583 298.558-298.558 298.558-59.452 0-114.68-17.219-161.137-47.106 8.447.974 16.568 1.299 25.34 1.299 49.055 0 94.213-16.568 130.274-44.832-46.132-.975-84.792-31.188-98.112-72.772 6.498.974 12.995 1.624 19.818 1.624 9.421 0 18.843-1.3 27.614-3.573-48.081-9.747-84.143-51.98-84.143-102.985v-1.299c13.969 7.797 30.214 12.67 47.431 13.319-28.264-18.843-46.781-51.005-46.781-87.391 0-19.492 5.197-37.36 14.294-52.954 51.655 63.675 129.3 105.258 216.365 109.807-1.624-7.797-2.599-15.918-2.599-24.04 0-57.828 46.782-104.934 104.934-104.934 30.213 0 57.502 12.67 76.67 33.137 23.715-4.548 46.456-13.32 66.599-25.34-7.798 24.366-24.366 44.833-46.132 57.827 21.117-2.273 41.584-8.122 60.426-16.243-14.292 20.791-32.161 39.308-52.628 54.253z" style="fill: var(--icon-fill, currentColor);"/>
    </symbol>
    <symbol viewBox="0 0 448 512" id="instagram">
        <path d="M224.1 141c-63.6 0-114.9 51.3-114.9 114.9s51.3 114.9 114.9 114.9S339 319.5 339 255.9 287.7 141 224.1 141zm0 189.6c-41.1 0-74.7-33.5-74.7-74.7s33.5-74.7 74.7-74.7 74.7 33.5 74.7 74.7-33.6 74.7-74.7 74.7zm146.4-194.3c0 14.9-12 26.8-26.8 26.8-14.9 0-26.8-12-26.8-26.8s12-26.8 26.8-26.8 26.8 12 26.8 26.8zm76.1 27.2c-1.7-35.9-9.9-67.7-36.2-93.9-26.2-26.2-58-34.4-93.9-36.2-37-2.1-147.9-2.1-184.9 0-35.8 1.7-67.6 9.9-93.9 36.1s-34.4 58-36.2 93.9c-2.1 37-2.1 147.9 0 184.9 1.7 35.9 9.9 67.7 36.2 93.9s58 34.4 93.9 36.2c37 2.1 147.9 2.1 184.9 0 35.9-1.7 67.7-9.9 93.9-36.2 26.2-26.2 34.4-58 36.2-93.9 2.1-37 2.1-147.8 0-184.8zM398.8 388c-7.8 19.6-22.9 34.7-42.6 42.6-29.5 11.7-99.5 9-132.1 9s-102.7 2.6-132.1-9c-19.6-7.8-34.7-22.9-42.6-42.6-11.7-29.5-9-99.5-9-132.1s-2.6-102.7 9-132.1c7.8-19.6 22.9-34.7 42.6-42.6 29.5-11.7 99.5-9 132.1-9s102.7-2.6 132.1 9c19.6 7.8 34.7 22.9 42.6 42.6 11.7 29.5 9 99.5 9 132.1s2.7 102.7-9 132.1z" style="fill: var(--icon-fill, currentColor);"/>
    </symbol>
    <symbol viewBox="0 0 34 24" id="checked">
        <path d="m10.37 9.54 3.8 3.8L21.5 6" id="check-path" style="stroke:var(--icon-fill, #fafafa);stroke-opacity:1;stroke-width: 1.11;"/>
    </symbol>
    <symbol viewBox="0 0 24 20" id="cart">
        <path fill-rule="evenodd" clip-rule="evenodd" d="M7.62 12.68c-.38 0-.69.3-.69.66 0 .37.31.66.69.66h12.4c.37 0 .68.3.68.66 0 .37-.3.66-.69.66H7.62a2.02 2.02 0 0 1-2.05-1.98c0-.8.5-1.5 1.23-1.81L4.34.8H.78A.67.67 0 0 1 .1.15c0-.37.3-.66.68-.66h4.1c.32 0 .6.21.67.52l.49 2.12h16.7c.22 0 .42.1.55.26.13.17.17.38.12.58l-2.74 9.23a.68.68 0 0 1-.66.48H7.62zm1.23 2.64a2.09 2.09 0 1 1 0 4.17 2.09 2.09 0 0 1 0-4.17zm10 0a2.09 2.09 0 1 1 0 4.17 2.09 2.09 0 0 1 0-4.17zm.65-3.96 2.34-7.91H6.34l1.83 7.91zm-9.96 6.05a.7.7 0 1 0-1.39 0 .7.7 0 0 0 1.4 0zm9.3-.7a.7.7 0 1 1 0 1.4.7.7 0 0 1 0-1.4z"  style="fill: var(--icon-fill, currentColor);fill-opacity: 1;"/>
    </symbol>
     <symbol viewBox="0 0 143 25" id="logo">
        <path fill-rule="evenodd" clip-rule="evenodd" d="M57.9755 4.10884V0H53.2131V4.10884H57.9755ZM41.8721 20.3997C43.5076 20.3997 44.9648 19.8429 46.1074 18.8803L46.5635 19.9241H50.1425V0.792094L45.3611 0.792093V6.38308C44.3548 5.75732 43.1686 5.40721 41.8721 5.40721C37.5634 5.40721 34.4943 8.52769 34.4943 12.896C34.4943 17.2644 37.5634 20.3997 41.8721 20.3997ZM7.36265 20.3849C8.99354 20.3849 10.4497 19.8476 11.5995 18.9152L12.0137 19.9093H15.7527V5.85311L12.1479 5.85285L11.6531 6.93986C10.4936 5.98222 9.01642 5.42934 7.36265 5.42934C3.06909 5.42934 0 8.52769 0 12.8809C0 17.2493 3.06909 20.3849 7.36265 20.3849ZM8.00933 16.098C6.19773 16.098 4.86614 14.7278 4.86614 12.8921C4.86614 11.0677 6.18681 9.69748 8.00933 9.69748C9.82094 9.69748 11.1525 11.0677 11.1525 12.8921C11.1525 14.7278 9.82094 16.098 8.00933 16.098ZM32.4542 13.8899C32.4542 17.823 29.6916 20.3849 25.544 20.3849C21.396 20.3849 18.6184 17.823 18.6184 13.8899V5.86794H23.4549V13.6793C23.4549 15.163 24.2516 16.0355 25.544 16.0355C26.836 16.0355 27.6177 15.1482 27.6177 13.6793V5.86794H32.4542V13.8899ZM39.3758 12.8963C39.3758 14.7317 40.7074 16.1128 42.519 16.1128C44.3306 16.1128 45.6622 14.7317 45.6622 12.8963C45.6622 11.0607 44.3306 9.67952 42.519 9.67952C40.7074 9.67952 39.3758 11.0607 39.3758 12.8963ZM58.0127 5.86768V19.9239H53.1762V5.86768H58.0127ZM68.1095 20.3849C72.6727 20.3849 75.9821 17.2384 75.9821 12.896C75.9821 8.53888 72.6727 5.40747 68.1095 5.40747C63.5315 5.40747 60.237 8.53888 60.237 12.896C60.237 17.2384 63.5315 20.3849 68.1095 20.3849ZM65.0812 12.8963C65.0812 14.7546 66.346 16.0355 68.1095 16.0358C69.873 16.0358 71.1378 14.7548 71.1378 12.8966C71.1378 11.0492 69.873 9.75709 68.1095 9.75709C66.346 9.75709 65.0812 11.038 65.0812 12.8963ZM82.9978 25V19.4663C83.9888 20.0655 85.1511 20.3997 86.4208 20.3997C90.7144 20.3997 93.7835 17.2753 93.7835 12.896C93.7835 8.51676 90.7144 5.40721 86.4208 5.40721C84.7523 5.40721 83.2662 5.98508 82.1114 6.98463L81.5056 5.86794H78.2165V25H82.9978ZM82.6307 12.8958C82.6307 14.7424 83.9623 16.1126 85.7739 16.1126C87.5743 16.1126 88.9171 14.7424 88.9171 12.8958C88.9171 11.0492 87.5855 9.679 85.7739 9.679C83.9623 9.679 82.6307 11.0492 82.6307 12.8958ZM100.839 19.9241V12.4181C100.839 10.6143 101.751 9.57462 103.215 9.57462C104.477 9.57462 105.046 10.4011 105.046 12.0222V19.9241H109.882V11.4597C109.882 7.81629 107.811 5.45225 104.587 5.45225C103.188 5.45225 101.873 5.95931 100.839 6.79279V0.792093H96.0023V19.9241H100.839ZM117.574 0V4.10884H112.811V0H117.574ZM117.611 5.86768H112.774V19.9239H117.611V5.86768ZM125.489 0.792093V19.9241H120.653V0.792093H125.489ZM135.34 20.3851C138.863 20.3851 141.704 18.3808 142.692 15.1729H137.879C137.414 15.9957 136.47 16.4911 135.34 16.4911C133.813 16.4911 132.79 15.6573 132.474 14.045H142.9C142.963 13.6103 143 13.1868 143 12.7633C143 8.63988 139.866 5.40747 135.34 5.40747C130.933 5.40747 127.714 8.57611 127.714 12.8854C127.714 17.1795 130.959 20.3851 135.34 20.3851ZM132.559 11.3639H138.236C137.811 9.95908 136.8 9.20109 135.34 9.20109C133.931 9.20109 132.951 9.96767 132.559 11.3639Z" fill="white"/>
    </symbol>

    <symbol viewBox="0 0 24 24" id="hamburger">
        <path d="M1.5 2.3C5.3 2.3 8.7 2.3 11.7 2.3 14.7 2.3 16.6 2.3 18.1 2.3 19.3 2.3 20 2.3 20.4 2.3 20.8 2.3 21.5 2.3 21.9 2.6 22.3 3 22.7 3.4 23.1 3.8 23.4 4.2 23.4 4.9 23.4 5.7 23.4 6.4 23.4 7.6 23.4 9.1 23.4 10.2 23.4 11.7 23.4 14 23.4 16.3 23.4 19.3 23.1 20.8 23.1 21.9 22.3 21.9 18.9 18.5 15.1 15.5 8.7 8.7 1.9 2.3" style="fill: none;stroke: var(--h-stroke, currentcolor);stroke-width: 4;transition: var(--h-transition);stroke-dasharray: var(--c, 20, 55);stroke-dashoffset: var(--so, 0);" />
        <path d="M1.9 11.7C7.9 11.7 14 11.7 21 11.7" style="fill: none;stroke: var(--h-stroke, currentColor);stroke-width: 4;transition: var(--h-transition);stroke-dasharray: var(--m, 0); "/>
        <path d="M1.5 21.5C4.9 21.5 7.9 21.5 10.6 21.5 13.2 21.5 15.1 21.5 16.6 21.5 18.1 21.5 19.3 21.5 20 21.5 20.8 21.5 21.5 21.5 21.9 21.2 22.3 20.8 23.1 20 23.1 18.9 23.4 17.8 23.4 16.6 23.4 15.5 23.4 14.4 23.4 12.9 23.4 11.3 23.4 9.8 23.4 8.7 23.4 7.6 23.4 6.8 23.4 6.4 23.4 5.7 23.4 5.3 23.4 4.5 23.4 3.8 23.4 3 23.4 2.3 23.1 1.9 23.1 1.9 22.3 1.9 18.9 5.3 15.5 8.3 8.7 15.1 1.9 21.9" style="fill: none;stroke: var(--h-stroke, currentcolor);stroke-width: 4;transition: var(--h-transition);stroke-dasharray: var(--c, 20, 55);stroke-dashoffset: var(--so, 0);"/>
    </symbol>
</svg>
