<svg xmlns="http://www.w3.org/2000/svg" version="1.1">
    <symbol viewBox="0 0 24 24" id="right_arrow">
        <path fill-rule="evenodd" clip-rule="evenodd" d="M9.53151 6.41438C9.20806 6.67313 9.15562 7.1451 9.41438 7.46855L13.0396 12L9.41438 16.5315C9.15562 16.855 9.20806 17.3269 9.53151 17.5857C9.85495 17.8444 10.3269 17.792 10.5857 17.4685L14.5857 12.4685C14.8048 12.1946 14.8048 11.8054 14.5857 11.5315L10.5857 6.53151C10.3269 6.20806 9.85495 6.15562 9.53151 6.41438Z" style="fill: var(--icon-fill, currentColor);"/>
    </symbol>
    <symbol viewBox="0 0 448 512" id="mastodon">
        <path d="M433 179.1c0-97.2-63.7-125.7-63.7-125.7-62.5-28.7-228.6-28.4-290.5 0 0 0-63.7 28.5-63.7 125.7 0 115.7-6.6 259.4 105.6 289.1 40.5 10.7 75.3 13 103.3 11.4 50.8-2.8 79.3-18.1 79.3-18.1l-1.7-36.9s-36.3 11.4-77.1 10.1c-40.4-1.4-83-4.4-89.6-54a102.5 102.5 0 01-.9-13.9c85.6 20.9 158.7 9.1 178.8 6.7 56.1-6.7 105-41.3 111.2-72.9 9.8-49.8 9-121.5 9-121.5zm-75.1 125.2h-46.6v-114.2c0-49.7-64-51.6-64 6.9v62.5h-46.3V197c0-58.5-64-56.6-64-6.9v114.2H90.2c0-122.1-5.2-147.9 18.4-175 25.9-28.9 79.8-30.8 103.8 6.1l11.6 19.5 11.6-19.5c24.1-37.1 78.1-34.8 103.8-6.1 23.7 27.3 18.4 53 18.4 175z" style="fill: var(--icon-fill, currentColor);"/>
    </symbol>
    <symbol viewBox="0 0 512 512" id="twitter">
        <path d="M389.2 48h70.6L305.6 224.2 487 464H345L233.7 318.6 106.5 464H35.8L200.7 275.5 26.8 48H172.4L272.9 180.9 389.2 48zM364.4 421.8h39.1L151.1 88h-42L364.4 421.8z" style="fill: var(--icon-fill, currentColor);"/>
    </symbol>
    <symbol viewBox="0 0 496 512" id="github">
        <path d="M165.9 397.4c0 2-2.3 3.6-5.2 3.6-3.3.3-5.6-1.3-5.6-3.6 0-2 2.3-3.6 5.2-3.6 3-.3 5.6 1.3 5.6 3.6zm-31.1-4.5c-.7 2 1.3 4.3 4.3 4.9 2.6 1 5.6 0 6.2-2s-1.3-4.3-4.3-5.2c-2.6-.7-5.5.3-6.2 2.3zm44.2-1.7c-2.9.7-4.9 2.6-4.6 4.9.3 2 2.9 3.3 5.9 2.6 2.9-.7 4.9-2.6 4.6-4.6-.3-1.9-3-3.2-5.9-2.9zM244.8 8C106.1 8 0 113.3 0 252c0 110.9 69.8 205.8 169.5 239.2 12.8 2.3 17.3-5.6 17.3-12.1 0-6.2-.3-40.4-.3-61.4 0 0-70 15-84.7-29.8 0 0-11.4-29.1-27.8-36.6 0 0-22.9-15.7 1.6-15.4 0 0 24.9 2 38.6 25.8 21.9 38.6 58.6 27.5 72.9 20.9 2.3-16 8.8-27.1 16-33.7-55.9-6.2-112.3-14.3-112.3-110.5 0-27.5 7.6-41.3 23.6-58.9-2.6-6.5-11.1-33.3 2.6-67.9 20.9-6.5 69 27 69 27 20-5.6 41.5-8.5 62.8-8.5s42.8 2.9 62.8 8.5c0 0 48.1-33.6 69-27 13.7 34.7 5.2 61.4 2.6 67.9 16 17.7 25.8 31.5 25.8 58.9 0 96.5-58.9 104.2-114.8 110.5 9.2 7.9 17 22.9 17 46.4 0 33.7-.3 75.4-.3 83.6 0 6.5 4.6 14.4 17.3 12.1C428.2 457.8 496 362.9 496 252 496 113.3 383.5 8 244.8 8zM97.2 352.9c-1.3 1-1 3.3.7 5.2 1.6 1.6 3.9 2.3 5.2 1 1.3-1 1-3.3-.7-5.2-1.6-1.6-3.9-2.3-5.2-1zm-10.8-8.1c-.7 1.3.3 2.9 2.3 3.9 1.6 1 3.6.7 4.3-.7.7-1.3-.3-2.9-2.3-3.9-2-.6-3.6-.3-4.3.7zm32.4 35.6c-1.6 1.3-1 4.3 1.3 6.2 2.3 2.3 5.2 2.6 6.5 1 1.3-1.3.7-4.3-1.3-6.2-2.2-2.3-5.2-2.6-6.5-1zm-11.4-14.7c-1.6 1-1.6 3.6 0 5.9 1.6 2.3 4.3 3.3 5.6 2.3 1.6-1.3 1.6-3.9 0-6.2-1.4-2.3-4-3.3-5.6-2z" style="fill: var(--icon-fill, currentColor);"/>
    </symbol>
    <symbol viewBox="0 0 34 24" id="checked">
        <path d="m10.37 9.54 3.8 3.8L21.5 6" id="check-path" style="stroke:var(--icon-fill, #fafafa);stroke-opacity:1;stroke-width: 1.11;"/>
    </symbol>
    <symbol viewBox="0 0 24 20" id="cart">
        <path fill-rule="evenodd" clip-rule="evenodd" d="M7.62 12.68c-.38 0-.69.3-.69.66 0 .37.31.66.69.66h12.4c.37 0 .68.3.68.66 0 .37-.3.66-.69.66H7.62a2.02 2.02 0 0 1-2.05-1.98c0-.8.5-1.5 1.23-1.81L4.34.8H.78A.67.67 0 0 1 .1.15c0-.37.3-.66.68-.66h4.1c.32 0 .6.21.67.52l.49 2.12h16.7c.22 0 .42.1.55.26.13.17.17.38.12.58l-2.74 9.23a.68.68 0 0 1-.66.48H7.62zm1.23 2.64a2.09 2.09 0 1 1 0 4.17 2.09 2.09 0 0 1 0-4.17zm10 0a2.09 2.09 0 1 1 0 4.17 2.09 2.09 0 0 1 0-4.17zm.65-3.96 2.34-7.91H6.34l1.83 7.91zm-9.96 6.05a.7.7 0 1 0-1.39 0 .7.7 0 0 0 1.4 0zm9.3-.7a.7.7 0 1 1 0 1.4.7.7 0 0 1 0-1.4z"  style="fill: var(--icon-fill, currentColor);fill-opacity: 1;"/>
    </symbol>
     <symbol viewBox="0 0 143 25" id="logo">
        <path fill-rule="evenodd" clip-rule="evenodd" d="M57.9755 4.10884V0H53.2131V4.10884H57.9755ZM41.8721 20.3997C43.5076 20.3997 44.9648 19.8429 46.1074 18.8803L46.5635 19.9241H50.1425V0.792094L45.3611 0.792093V6.38308C44.3548 5.75732 43.1686 5.40721 41.8721 5.40721C37.5634 5.40721 34.4943 8.52769 34.4943 12.896C34.4943 17.2644 37.5634 20.3997 41.8721 20.3997ZM7.36265 20.3849C8.99354 20.3849 10.4497 19.8476 11.5995 18.9152L12.0137 19.9093H15.7527V5.85311L12.1479 5.85285L11.6531 6.93986C10.4936 5.98222 9.01642 5.42934 7.36265 5.42934C3.06909 5.42934 0 8.52769 0 12.8809C0 17.2493 3.06909 20.3849 7.36265 20.3849ZM8.00933 16.098C6.19773 16.098 4.86614 14.7278 4.86614 12.8921C4.86614 11.0677 6.18681 9.69748 8.00933 9.69748C9.82094 9.69748 11.1525 11.0677 11.1525 12.8921C11.1525 14.7278 9.82094 16.098 8.00933 16.098ZM32.4542 13.8899C32.4542 17.823 29.6916 20.3849 25.544 20.3849C21.396 20.3849 18.6184 17.823 18.6184 13.8899V5.86794H23.4549V13.6793C23.4549 15.163 24.2516 16.0355 25.544 16.0355C26.836 16.0355 27.6177 15.1482 27.6177 13.6793V5.86794H32.4542V13.8899ZM39.3758 12.8963C39.3758 14.7317 40.7074 16.1128 42.519 16.1128C44.3306 16.1128 45.6622 14.7317 45.6622 12.8963C45.6622 11.0607 44.3306 9.67952 42.519 9.67952C40.7074 9.67952 39.3758 11.0607 39.3758 12.8963ZM58.0127 5.86768V19.9239H53.1762V5.86768H58.0127ZM68.1095 20.3849C72.6727 20.3849 75.9821 17.2384 75.9821 12.896C75.9821 8.53888 72.6727 5.40747 68.1095 5.40747C63.5315 5.40747 60.237 8.53888 60.237 12.896C60.237 17.2384 63.5315 20.3849 68.1095 20.3849ZM65.0812 12.8963C65.0812 14.7546 66.346 16.0355 68.1095 16.0358C69.873 16.0358 71.1378 14.7548 71.1378 12.8966C71.1378 11.0492 69.873 9.75709 68.1095 9.75709C66.346 9.75709 65.0812 11.038 65.0812 12.8963ZM82.9978 25V19.4663C83.9888 20.0655 85.1511 20.3997 86.4208 20.3997C90.7144 20.3997 93.7835 17.2753 93.7835 12.896C93.7835 8.51676 90.7144 5.40721 86.4208 5.40721C84.7523 5.40721 83.2662 5.98508 82.1114 6.98463L81.5056 5.86794H78.2165V25H82.9978ZM82.6307 12.8958C82.6307 14.7424 83.9623 16.1126 85.7739 16.1126C87.5743 16.1126 88.9171 14.7424 88.9171 12.8958C88.9171 11.0492 87.5855 9.679 85.7739 9.679C83.9623 9.679 82.6307 11.0492 82.6307 12.8958ZM100.839 19.9241V12.4181C100.839 10.6143 101.751 9.57462 103.215 9.57462C104.477 9.57462 105.046 10.4011 105.046 12.0222V19.9241H109.882V11.4597C109.882 7.81629 107.811 5.45225 104.587 5.45225C103.188 5.45225 101.873 5.95931 100.839 6.79279V0.792093H96.0023V19.9241H100.839ZM117.574 0V4.10884H112.811V0H117.574ZM117.611 5.86768H112.774V19.9239H117.611V5.86768ZM125.489 0.792093V19.9241H120.653V0.792093H125.489ZM135.34 20.3851C138.863 20.3851 141.704 18.3808 142.692 15.1729H137.879C137.414 15.9957 136.47 16.4911 135.34 16.4911C133.813 16.4911 132.79 15.6573 132.474 14.045H142.9C142.963 13.6103 143 13.1868 143 12.7633C143 8.63988 139.866 5.40747 135.34 5.40747C130.933 5.40747 127.714 8.57611 127.714 12.8854C127.714 17.1795 130.959 20.3851 135.34 20.3851ZM132.559 11.3639H138.236C137.811 9.95908 136.8 9.20109 135.34 9.20109C133.931 9.20109 132.951 9.96767 132.559 11.3639Z" fill="white"/>
    </symbol>
    <symbol>

    </symbol>

    <symbol viewBox="0 0 24 24" id="hamburger">
        <path d="M1.5 2.3C5.3 2.3 8.7 2.3 11.7 2.3 14.7 2.3 16.6 2.3 18.1 2.3 19.3 2.3 20 2.3 20.4 2.3 20.8 2.3 21.5 2.3 21.9 2.6 22.3 3 22.7 3.4 23.1 3.8 23.4 4.2 23.4 4.9 23.4 5.7 23.4 6.4 23.4 7.6 23.4 9.1 23.4 10.2 23.4 11.7 23.4 14 23.4 16.3 23.4 19.3 23.1 20.8 23.1 21.9 22.3 21.9 18.9 18.5 15.1 15.5 8.7 8.7 1.9 2.3" style="fill: none;stroke: var(--h-stroke, currentcolor);stroke-width: 4;transition: var(--h-transition);stroke-dasharray: var(--c, 20, 55);stroke-dashoffset: var(--so, 0);" />
        <path d="M1.9 11.7C7.9 11.7 14 11.7 21 11.7" style="fill: none;stroke: var(--h-stroke, currentColor);stroke-width: 4;transition: var(--h-transition);stroke-dasharray: var(--m, 0); "/>
        <path d="M1.5 21.5C4.9 21.5 7.9 21.5 10.6 21.5 13.2 21.5 15.1 21.5 16.6 21.5 18.1 21.5 19.3 21.5 20 21.5 20.8 21.5 21.5 21.5 21.9 21.2 22.3 20.8 23.1 20 23.1 18.9 23.4 17.8 23.4 16.6 23.4 15.5 23.4 14.4 23.4 12.9 23.4 11.3 23.4 9.8 23.4 8.7 23.4 7.6 23.4 6.8 23.4 6.4 23.4 5.7 23.4 5.3 23.4 4.5 23.4 3.8 23.4 3 23.4 2.3 23.1 1.9 23.1 1.9 22.3 1.9 18.9 5.3 15.5 8.3 8.7 15.1 1.9 21.9" style="fill: none;stroke: var(--h-stroke, currentcolor);stroke-width: 4;transition: var(--h-transition);stroke-dasharray: var(--c, 20, 55);stroke-dashoffset: var(--so, 0);"/>
    </symbol>
</svg>
